<?xml version="1.0" encoding="utf-8"?>
<!-- Svg Vector Icons : http://www.onlinewebfonts.com/icon -->
<!DOCTYPE svg PUBLIC "-//W3C//DTD SVG 1.1//EN" "http://www.w3.org/Graphics/SVG/1.1/DTD/svg11.dtd">
<svg version="1.1" xmlns="http://www.w3.org/2000/svg" xmlns:xlink="http://www.w3.org/1999/xlink" x="0px" y="0px" viewBox="0 0 1000 1000" enable-background="new 0 0 1000 1000" fill="white" xml:space="preserve">
<metadata> Svg Vector Icons : http://www.onlinewebfonts.com/icon </metadata>
<g><g transform="translate(0.000000,511.000000) scale(0.100000,-0.100000)"><path d="M4602,3662.3C2381.3,1972.7,139.4,229.3,116,173.2C97.3,128.7,95,86.6,109,44.5C141.8-46.8,4875.8-3681,4962.4-3681c95.9,0,187.2,81.9,187.2,170.8c0,39.8-208.2,603.7-468,1259c-257.4,652.9-468,1193.5-468,1200.5c0,7,1256.6,14,2791.7,14h2794.1l49.1,53.8C9900-929,9900-924.3,9900,103c0,980.5-2.3,1034.3-44.5,1085.8l-44.4,56.2l-2798.8,7c-1539.8,2.3-2798.7,9.4-2798.7,14c0,4.7,210.6,542.9,468,1193.5c257.4,650.6,468,1209.8,468,1240.3c0,30.4-7,74.9-14,95.9c-16.4,39.8-126.4,105.3-182.5,105.3C4932,3901,4775.2,3793.3,4602,3662.3z"/></g></g>
</svg>