<?xml version="1.0" encoding="utf-8"?>
<!-- Svg Vector Icons : http://www.onlinewebfonts.com/icon -->
<!DOCTYPE svg PUBLIC "-//W3C//DTD SVG 1.1//EN" "http://www.w3.org/Graphics/SVG/1.1/DTD/svg11.dtd">
<svg version="1.1" xmlns="http://www.w3.org/2000/svg" xmlns:xlink="http://www.w3.org/1999/xlink" x="0px" y="0px" viewBox="0 0 1000 1000" enable-background="new 0 0 1000 1000" fill="white" xml:space="preserve">
<metadata> Svg Vector Icons : http://www.onlinewebfonts.com/icon </metadata>
<g><g transform="translate(0.000000,511.000000) scale(0.100000,-0.100000)"><path d="M1985.5,3656.8C316.4,2369.6,229.2,2298.9,222.1,2223.5l-7.1-80.2l1768-1360.2C3800.7-614.9,3826.6-633.7,3913.8-546.5c16.5,16.5,28.3,56.6,28.3,91.9S3788.9-1.9,3600.3,474.3c-188.6,473.8-341.8,872.2-341.8,884c0,9.4,1034.9,18.9,2300.8,18.9c2088.7,0,2305.5,4.7,2340.9,40.1c33,33,37.7,129.7,37.7,799.2c0,610.6-7,768.5-33,799.2c-28.3,37.7-221.6,40.1-2338.5,40.1c-1379.1,0-2307.9,9.4-2307.9,21.2s153.2,410.2,341.8,884c188.6,476.2,341.8,895.8,341.8,933.5c0,75.4-54.2,117.9-146.2,115.5C3760.6,5009.9,3105.2,4519.6,1985.5,3656.8z"/><path d="M6073.2,733.6c-23.6-35.4-30.6-75.4-18.9-110.8c9.4-30.6,167.4-438.5,353.6-910c186.2-471.5,339.5-860.4,339.5-867.5c0-4.7-1037.3-9.4-2305.5-9.4c-2206.5,0-2310.2-2.4-2345.6-42.4s-40.1-129.7-40.1-799.2c0-700.1,2.4-756.7,42.4-792.1c40.1-37.7,238.1-40.1,2348-40.1c2185.3,0,2305.5-2.4,2291.4-40.1c-9.4-23.6-172.1-433.7-360.7-912.3c-325.3-822.7-341.8-874.6-311.2-931.2c23.6-40.1,58.9-63.6,106.1-68.4c61.3-7.1,287.6,160.3,1777.5,1306c940.6,721.4,1737.4,1339,1775.1,1372c80.2,77.8,80.2,143.8,0,221.6c-37.7,33-834.5,650.6-1772.8,1372C6139.2,875,6158,863.2,6073.2,733.6z"/></g></g>
</svg>