<?xml version="1.0" encoding="utf-8"?>
<!-- Svg Vector Icons : http://www.onlinewebfonts.com/icon -->
<!DOCTYPE svg PUBLIC "-//W3C//DTD SVG 1.1//EN" "http://www.w3.org/Graphics/SVG/1.1/DTD/svg11.dtd">
<svg version="1.1" xmlns="http://www.w3.org/2000/svg" xmlns:xlink="http://www.w3.org/1999/xlink" x="0px" y="0px" viewBox="0 0 1000 1000" enable-background="new 0 0 1000 1000" fill="white" xml:space="preserve">
<metadata> Svg Vector Icons : http://www.onlinewebfonts.com/icon </metadata>
<g><g transform="translate(0.000000,511.000000) scale(0.100000,-0.100000)"><path d="M4974.3,3881c-65.5-25.7-126.3-112.3-124-175.4c0-25.7,212.8-582.4,474.8-1239.6l472.4-1192.8l-2792.6-11.7l-2792.7-11.7l-56.1-65.5l-56.1-65.5V106c0-963.6,2.3-1017.4,44.4-1068.9l44.4-56.1l2806.7-11.7l2806.7-11.7l-477.1-1204.5c-367.2-926.2-474.8-1220.9-465.4-1274.7c21-126.3,156.7-189.4,269-128.6c65.5,35.1,4605.3,3524.7,4696.5,3608.9c58.5,56.1,74.9,91.2,74.9,159.1c0,74.8-14,100.6-98.2,168.4c-505.2,407-4684.8,3597.2-4724.6,3604.3C5046.8,3897.4,5000,3892.7,4974.3,3881z"/></g></g>
</svg>