<svg xmlns="http://www.w3.org/2000/svg">
  <symbol id="left" viewBox="0 0 1000 1000" preserveAspectRatio="xMidYMid" fill="white">
    <g transform="translate(0.000000,511.000000) scale(0.100000,-0.100000)">
      <path d="M4602,3662.3C2381.3,1972.7,139.4,229.3,116,173.2C97.3,128.7,95,86.6,109,44.5C141.8-46.8,4875.8-3681,4962.4-3681c95.9,0,187.2,81.9,187.2,170.8c0,39.8-208.2,603.7-468,1259c-257.4,652.9-468,1193.5-468,1200.5c0,7,1256.6,14,2791.7,14h2794.1l49.1,53.8C9900-929,9900-924.3,9900,103c0,980.5-2.3,1034.3-44.5,1085.8l-44.4,56.2l-2798.8,7c-1539.8,2.3-2798.7,9.4-2798.7,14c0,4.7,210.6,542.9,468,1193.5c257.4,650.6,468,1209.8,468,1240.3c0,30.4-7,74.9-14,95.9c-16.4,39.8-126.4,105.3-182.5,105.3C4932,3901,4775.2,3793.3,4602,3662.3z"/>
    </g>
  </symbol>

  <symbol id="right" viewBox="0 0 1000 1000" preserveAspectRatio="xMidYMid" fill="white">
    <g transform="translate(0.000000,511.000000) scale(0.100000,-0.100000)">
      <path d="M4974.3,3881c-65.5-25.7-126.3-112.3-124-175.4c0-25.7,212.8-582.4,474.8-1239.6l472.4-1192.8l-2792.6-11.7l-2792.7-11.7l-56.1-65.5l-56.1-65.5V106c0-963.6,2.3-1017.4,44.4-1068.9l44.4-56.1l2806.7-11.7l2806.7-11.7l-477.1-1204.5c-367.2-926.2-474.8-1220.9-465.4-1274.7c21-126.3,156.7-189.4,269-128.6c65.5,35.1,4605.3,3524.7,4696.5,3608.9c58.5,56.1,74.9,91.2,74.9,159.1c0,74.8-14,100.6-98.2,168.4c-505.2,407-4684.8,3597.2-4724.6,3604.3C5046.8,3897.4,5000,3892.7,4974.3,3881z"/>
    </g>
  </symbol>

  <symbol id="replace" viewBox="0 0 1000 1000" preserveAspectRatio="xMidYMid" fill="white">
    <g transform="translate(0.000000,511.000000) scale(0.100000,-0.100000)">
      <path d="M1985.5,3656.8C316.4,2369.6,229.2,2298.9,222.1,2223.5l-7.1-80.2l1768-1360.2C3800.7-614.9,3826.6-633.7,3913.8-546.5c16.5,16.5,28.3,56.6,28.3,91.9S3788.9-1.9,3600.3,474.3c-188.6,473.8-341.8,872.2-341.8,884c0,9.4,1034.9,18.9,2300.8,18.9c2088.7,0,2305.5,4.7,2340.9,40.1c33,33,37.7,129.7,37.7,799.2c0,610.6-7,768.5-33,799.2c-28.3,37.7-221.6,40.1-2338.5,40.1c-1379.1,0-2307.9,9.4-2307.9,21.2s153.2,410.2,341.8,884c188.6,476.2,341.8,895.8,341.8,933.5c0,75.4-54.2,117.9-146.2,115.5C3760.6,5009.9,3105.2,4519.6,1985.5,3656.8z"/><path d="M6073.2,733.6c-23.6-35.4-30.6-75.4-18.9-110.8c9.4-30.6,167.4-438.5,353.6-910c186.2-471.5,339.5-860.4,339.5-867.5c0-4.7-1037.3-9.4-2305.5-9.4c-2206.5,0-2310.2-2.4-2345.6-42.4s-40.1-129.7-40.1-799.2c0-700.1,2.4-756.7,42.4-792.1c40.1-37.7,238.1-40.1,2348-40.1c2185.3,0,2305.5-2.4,2291.4-40.1c-9.4-23.6-172.1-433.7-360.7-912.3c-325.3-822.7-341.8-874.6-311.2-931.2c23.6-40.1,58.9-63.6,106.1-68.4c61.3-7.1,287.6,160.3,1777.5,1306c940.6,721.4,1737.4,1339,1775.1,1372c80.2,77.8,80.2,143.8,0,221.6c-37.7,33-834.5,650.6-1772.8,1372C6139.2,875,6158,863.2,6073.2,733.6z"/>
    </g>
  </symbol>
</svg>